<svg width="20" height="20" viewBox="0 0 20 20" fill="none" xmlns="http://www.w3.org/2000/svg">
<g id="category">
<g id="vuesax/bold/category">
<g id="category_2">
<path id="Vector" d="M6.03317 1.66669H4.44984C2.62484 1.66669 1.6665 2.62502 1.6665 4.44169V6.02502C1.6665 7.84169 2.62484 8.80002 4.4415 8.80002H6.02484C7.8415 8.80002 8.79984 7.84169 8.79984 6.02502V4.44169C8.80817 2.62502 7.84984 1.66669 6.03317 1.66669Z" fill="#1B59F8"/>
<path id="Vector_2" d="M15.5583 1.66669H13.975C12.1583 1.66669 11.2 2.62502 11.2 4.44169V6.02502C11.2 7.84169 12.1583 8.80002 13.975 8.80002H15.5583C17.375 8.80002 18.3333 7.84169 18.3333 6.02502V4.44169C18.3333 2.62502 17.375 1.66669 15.5583 1.66669Z" fill="#1B59F8"/>
<path id="Vector_3" d="M15.5583 11.1917H13.975C12.1583 11.1917 11.2 12.15 11.2 13.9667V15.55C11.2 17.3667 12.1583 18.325 13.975 18.325H15.5583C17.375 18.325 18.3333 17.3667 18.3333 15.55V13.9667C18.3333 12.15 17.375 11.1917 15.5583 11.1917Z" fill="#1B59F8"/>
<path id="Vector_4" d="M6.03317 11.1917H4.44984C2.62484 11.1917 1.6665 12.15 1.6665 13.9667V15.55C1.6665 17.375 2.62484 18.3333 4.4415 18.3333H6.02484C7.8415 18.3333 8.79984 17.375 8.79984 15.5583V13.975C8.80817 12.15 7.84984 11.1917 6.03317 11.1917Z" fill="#1B59F8"/>
</g>
</g>
</g>
</svg>
