<svg xmlns="http://www.w3.org/2000/svg" xmlns:xlink="http://www.w3.org/1999/xlink" viewBox="0 0 427 74.3"><defs><style>.cls-1{fill:url(#linear-gradient);}.cls-2{fill:url(#linear-gradient-2);}.cls-3{fill:url(#linear-gradient-3);}.cls-4{fill:url(#linear-gradient-4);}.cls-5{fill:url(#linear-gradient-5);}.cls-6{fill:url(#linear-gradient-6);}.cls-7{fill:url(#linear-gradient-7);}.cls-8{fill:#fff;}.cls-9{fill:url(#linear-gradient-8);}.cls-10{fill:url(#linear-gradient-9);}.cls-11{fill:url(#linear-gradient-10);}.cls-12{fill:url(#linear-gradient-11);}.cls-13{fill:url(#linear-gradient-12);}.cls-14{fill:url(#linear-gradient-13);}.cls-15{fill:url(#linear-gradient-14);}.cls-16{fill:url(#linear-gradient-15);}.cls-17{fill:url(#linear-gradient-16);}.cls-18{fill:url(#linear-gradient-17);}.cls-19{fill:url(#linear-gradient-18);}</style><linearGradient id="linear-gradient" x1="199.05" y1="34.67" x2="228.94" y2="34.67" gradientUnits="userSpaceOnUse"><stop offset="0" stop-color="#333"/><stop offset="0.3" stop-color="#3e3e3e"/><stop offset="0.81" stop-color="#5a5a5a"/><stop offset="1" stop-color="#666"/></linearGradient><linearGradient id="linear-gradient-2" x1="147" y1="44.47" x2="163.27" y2="44.47" gradientUnits="userSpaceOnUse"><stop offset="0" stop-color="#333"/><stop offset="0.99" stop-color="#666"/></linearGradient><linearGradient id="linear-gradient-3" x1="156.08" y1="49.72" x2="206.61" y2="49.72" gradientUnits="userSpaceOnUse"><stop offset="0" stop-color="#666"/><stop offset="1" stop-color="#1a1a1a"/></linearGradient><linearGradient id="linear-gradient-4" x1="161.62" y1="53.57" x2="196.15" y2="53.57" gradientUnits="userSpaceOnUse"><stop offset="0" stop-color="#333"/><stop offset="1" stop-color="#666"/></linearGradient><linearGradient id="linear-gradient-5" x1="151.2" y1="18.58" x2="227.26" y2="18.58" xlink:href="#linear-gradient-4"/><linearGradient id="linear-gradient-6" x1="197.77" y1="29.48" x2="206.4" y2="29.48" xlink:href="#linear-gradient-3"/><linearGradient id="linear-gradient-7" x1="211.8" y1="23.61" x2="219.43" y2="23.61" gradientUnits="userSpaceOnUse"><stop offset="0" stop-color="#1a1a1a"/><stop offset="1" stop-color="#666"/></linearGradient><linearGradient id="linear-gradient-8" x1="156.1" y1="23.2" x2="223.11" y2="23.2" xlink:href="#linear-gradient-3"/><linearGradient id="linear-gradient-9" x1="0" y1="34.04" x2="40.22" y2="34.04" xlink:href="#linear-gradient-7"/><linearGradient id="linear-gradient-10" x1="43.22" y1="42.19" x2="73.61" y2="42.19" xlink:href="#linear-gradient-7"/><linearGradient id="linear-gradient-11" x1="77.57" y1="42.31" x2="101.46" y2="42.31" xlink:href="#linear-gradient-7"/><linearGradient id="linear-gradient-12" x1="106.52" y1="39.2" x2="126.34" y2="39.2" xlink:href="#linear-gradient-7"/><linearGradient id="linear-gradient-13" x1="240.51" y1="41.15" x2="264.11" y2="41.15" xlink:href="#linear-gradient-7"/><linearGradient id="linear-gradient-14" x1="267.65" y1="42.19" x2="298.04" y2="42.19" xlink:href="#linear-gradient-7"/><linearGradient id="linear-gradient-15" x1="297.62" y1="42.83" x2="350.03" y2="42.83" xlink:href="#linear-gradient-7"/><linearGradient id="linear-gradient-16" x1="349.6" y1="33.62" x2="368.19" y2="33.62" xlink:href="#linear-gradient-7"/><linearGradient id="linear-gradient-17" x1="370.74" y1="42.26" x2="399.72" y2="42.26" xlink:href="#linear-gradient-7"/><linearGradient id="linear-gradient-18" x1="403.39" y1="41.15" x2="427" y2="41.15" xlink:href="#linear-gradient-7"/></defs><g id="Layer_2" data-name="Layer 2"><g id="Layer_1-2" data-name="Layer 1"><path class="cls-1" d="M227.3,43.18a15,15,0,0,1-3.37-.58,15.52,15.52,0,0,1-4.4-2.13c-1.93-1.33-3-2.78-5.16-5.61-.8-1.06-.72-1-4.38-6.26a20.78,20.78,0,0,0-3.14-3.92A13.25,13.25,0,0,0,202.37,22c-1.54-.55-3.24-.81-3.32-.58s2.57.81,5.12,3a19,19,0,0,1,3.51,4.53,48.11,48.11,0,0,1,2.59,4.71c1.22,2.43,1.16,2.61,2.12,4.4a22.55,22.55,0,0,0,2.74,4.41A16.07,16.07,0,0,0,220,46.24a16.35,16.35,0,0,0,5,1.62,9.53,9.53,0,0,0,4,0c0-.2-2.56-.17-5.67-1.44-2.46-1-4.52-2.54-4.35-2.94s1.62.35,4,.38A13.25,13.25,0,0,0,227.3,43.18Z"/><path class="cls-2" d="M149.48,21.36a19.35,19.35,0,0,0-1.34,4.25,42.28,42.28,0,0,0-.81,5.14c-.15,1.41-.3,2.77-.33,4.61a39.34,39.34,0,0,0,.38,6,38.14,38.14,0,0,0,1.14,5.21A40.72,40.72,0,0,0,150,50.67c.31.74.87,2,1.68,3.52a39.55,39.55,0,0,0,2.2,3.64c.91,1.34,1.68,2.3,2.15,2.89s1.27,1.57,2.43,2.78c1,1,1.65,1.63,2.48,2.38,1.95,1.75,2.2,1.73,2.3,1.67s-.07-.61-.45-2.33c-.46-2.14-.59-2.91-.59-2.91a3.49,3.49,0,0,0-.38-1.34,3.77,3.77,0,0,0-1.08-1.11c-.58-.47-1.11-1-1.68-1.45a22.82,22.82,0,0,1-2.58-2.71,31.13,31.13,0,0,1-2.81-3.56,29.57,29.57,0,0,1-2.2-4.08,31.58,31.58,0,0,1-2.76-9.31,36.18,36.18,0,0,1-.45-6.13,39,39,0,0,1,.38-4.81c.3-2.39.63-4.5.63-4.5A8.84,8.84,0,0,0,149.48,21.36Z"/><path class="cls-3" d="M188.79,26.83c0,.13-2-.14-5-.3a48.72,48.72,0,0,0-7.44,0,29.67,29.67,0,0,0-7.65,1.67,15.54,15.54,0,0,0-4.1,2.08,13.66,13.66,0,0,0-3.29,3.41,13.48,13.48,0,0,0-1.72,3.92,15.22,15.22,0,0,0-.5,3.52,10.72,10.72,0,0,0,.25,3.09,12.07,12.07,0,0,0,1.37,3.24,14,14,0,0,0,1.34,2.1,19.33,19.33,0,0,0,2.12,2.23c.61.58,1.22,1.16,2.1,1.87s1.6,1.2,2.08,1.52c1.18.8,2.12,1.32,3,1.82,1.09.61,1.93,1,2.66,1.39s1.37.69,2.38,1.14c1.17.53,2.06.88,2.91,1.22,1.47.57,2.58,1,3.92,1.44s2.15.75,3,1c.6.19,1.24.38,5.56,1.51,2.26.6,3.11.81,4.2,1.07.68.15,1.41.28,2.86.6a5.47,5.47,0,0,1,2.06.68c.17.11.46.33,1.48,1.78.6.85.73,1.11,1.55,2.3a18.42,18.42,0,0,0,1.13,1.57c.92,1.06,1.58,1.35,1.5,1.52s-1.73-.21-4.53-1.06c-5.94-1.83-4.37-1.29-6-1.83-3.79-1.24-6.67-2.28-8-2.78s-2.8-1-4.91-1.9c-1.34-.54-2.75-1.14-4.22-1.79-1.12-.5-2.37-1.05-4-1.85-.91-.44-2.1-1-3.65-1.87-.66-.37-1.66-.92-2.93-1.7a39.46,39.46,0,0,1-4.38-3,28.9,28.9,0,0,1-3.06-2.78A16.74,16.74,0,0,1,158.7,51a15.22,15.22,0,0,1-1.45-2.86,16.79,16.79,0,0,1-.78-3,23.74,23.74,0,0,1-.36-3,13.66,13.66,0,0,1,.16-3.29,13.07,13.07,0,0,1,1-3.13A14.79,14.79,0,0,1,158.72,33a15.23,15.23,0,0,1,1.6-1.94,15.52,15.52,0,0,1,2.1-1.83,17.24,17.24,0,0,1,2.63-1.59,20.14,20.14,0,0,1,5.46-1.87,28.36,28.36,0,0,1,3.6-.54,31,31,0,0,1,3.62-.07c1.59,0,2.8.17,3.77.28,1.39.15,2.47.32,3.09.43A22.27,22.27,0,0,1,188.79,26.83Z"/><path class="cls-4" d="M161.63,44.52a9,9,0,0,0,2.05,2.91,20.88,20.88,0,0,0,2.79,2.33,45,45,0,0,0,3.94,2.71c.89.54,1.81,1,3.65,2,1.32.71,2.06,1.1,3.14,1.6s1.62.72,3,1.29c1.21.5,2.17.9,3.47,1.39,1.65.63,2.91,1,4.3,1.49,1.91.63,1.45.43,3.54,1.12,1,.33,2.09.57,3.12.91.82.27,1.38.49,1.52.3s-.13-.38-.92-1.59c-.37-.59-.5-.9-.93-1.52a2.2,2.2,0,0,0-1.8-1.19c-.58-.12-1.16-.27-1.75-.4s-.75-.21-1.82-.54c-1.36-.41-1.52-.41-2.73-.78-.42-.13-1.7-.52-3.39-1.09-.51-.17-1.85-.62-3.57-1.26l-3-1.15c-1.79-.7-2.68-1-3.39-1.36-1.2-.53-2.08-1-3-1.44-1.08-.55-1.88-1-2.93-1.57A21.91,21.91,0,0,1,164.34,47C162.56,45.66,161.73,44.44,161.63,44.52Z"/><path class="cls-5" d="M151.69,37.17c.1,0-.16-2.6.22-6.46a44.07,44.07,0,0,1,.91-5.54,32.62,32.62,0,0,1,1.49-4.9,27,27,0,0,1,2.82-5.34,25.24,25.24,0,0,1,3-3.54,21.58,21.58,0,0,1,3.39-2.81,23.54,23.54,0,0,1,3.74-1.95,32.7,32.7,0,0,1,3.24-1.19c.4-.12,1.52-.45,3-.75.47-.1,1.6-.32,3.08-.49A43.52,43.52,0,0,1,182.93,4a45.87,45.87,0,0,1,7.43.59A29.19,29.19,0,0,1,198.15,7a32.93,32.93,0,0,1,3.19,1.75c1.88,1.15,2,1.47,4.1,2.82,1.8,1.18,1.64.9,4.25,2.55a34.07,34.07,0,0,0,3.08,1.86c.71.37,1.43.67,2.86,1.27,2.52,1.06,4.11,1.68,4.11,1.68A19.31,19.31,0,0,1,222.19,20a10.73,10.73,0,0,1,1.55,1c.77.61,1.16.91,1.36,1.44a3,3,0,0,1,0,1.92,3.52,3.52,0,0,1-.91,1.83c-.19-.08.57-2.38.48-2.41s-.2.59-.66,1.38a3.83,3.83,0,0,1-.81,1.13c-.67.57-1.07.27-1.73.79-.48.37-.35.6-1,1.59s-1.23,1.34-1.15,1.46,2.15-.71,3.82-1.79a11.43,11.43,0,0,0,3-2.56,5,5,0,0,0,1.14-2.18,4,4,0,0,0-.17-2.37c-.14-.32-.46-.92-2.21-2.13a24.66,24.66,0,0,0-3.06-1.77c-1.21-.6-2.14-1-3.79-1.67-1.89-.78-2.21-.86-3.42-1.42a16.64,16.64,0,0,1-2.63-1.39,19.53,19.53,0,0,1-2.46-2.15c-.7-.68-1.43-1.37-2.35-2.38S205.89,6.94,205,6.1a9.13,9.13,0,0,0-1.72-1.36A10,10,0,0,0,201.72,4c-.77-.31-1.29-.47-2.53-.86l-2.76-.86c-1.53-.44-2.7-.72-3-.78s-1.57-.37-3.24-.66c-.91-.16-2.17-.38-3.82-.56-2-.21-3.7-.27-4.93-.28a36.21,36.21,0,0,0-4.74.21,32.59,32.59,0,0,0-5.41,1.08,33.83,33.83,0,0,0-4.2,1.52,29.1,29.1,0,0,0-3.95,2.13A25.43,25.43,0,0,0,160,7.29,23.75,23.75,0,0,0,157.48,10,22.22,22.22,0,0,0,155.33,13a26.85,26.85,0,0,0-1.52,3.13,28.39,28.39,0,0,0-1.26,3.27,26.4,26.4,0,0,0-.81,3.44c-.23,1.28-.36,2.39-.43,3.27a37.52,37.52,0,0,0-.08,4.58A47.25,47.25,0,0,0,151.69,37.17Z"/><path class="cls-6" d="M206.4,35c0,.27-2,.52-3.42.71s-1.81.15-2.15-.05-.58-.59-1.11-2.26-.83-2.83-.85-2.89c-.07-.3-.39-1.56-.75-3.31a15.86,15.86,0,0,1-.35-3c0-.3,0-1.15.1-1.16s.15.17.58,1.87c.32,1.27.35,1.47.54,2.18a23.75,23.75,0,0,0,.75,2.4A22.81,22.81,0,0,0,200.86,32c.62,1.23.94,1.85,1.42,2.13.31.19.46.17,2,.4S206.39,34.91,206.4,35Z"/><path class="cls-7" d="M211.8,25.78c0,.22,1.74.29,3.49-.08a8,8,0,0,0,3.09-1.34c.57-.42,1.07-.78,1.05-1.26s-.89-1-1.6-1.35-1.35-.64-1.82-.41-.35.91-1.12,2.1a5.3,5.3,0,0,1-1.16,1.31C212.71,25.57,211.77,25.61,211.8,25.78Z"/><path class="cls-8" d="M214,25.3a8.19,8.19,0,0,0,2.11-1.17c.82-.79,1.11-1.76,1.61-1.69a1.76,1.76,0,0,1,.6.3c.18.14.27.21.29.3.11.38-.85.95-1.42,1.3a6.68,6.68,0,0,1-1.81.81C214.81,25.31,214,25.42,214,25.3Z"/><path class="cls-9" d="M156.13,26.5c.19.09.91-2.14,3-4.18a13.5,13.5,0,0,1,3.63-2.5,17.84,17.84,0,0,1,4.34-1.48,29.14,29.14,0,0,1,5.54-.72,41.89,41.89,0,0,1,7,.15c.87.09,2.61.44,6.07,1.14s4.26.91,5,1.74A9.19,9.19,0,0,1,192,24c.11.34.16.53.76,3.11.34,1.45.36,1.57.76,3.26.6,2.58.63,2.71.72,3.19.39,2.11.43,2.36.43,2.36a5.63,5.63,0,0,0,.44,1.86,4,4,0,0,0,1.66,1.44,7,7,0,0,0,2.63.91,6.64,6.64,0,0,0,2.13-.08,7,7,0,0,0,2.14-.83c.75-.43,2-1.28,1.83-1.57s-.95.11-2.73.2a5,5,0,0,1-2.42-.15c-.45-.24-.89-.69-1.71-3.57-.33-1.15-.41-1.61-.91-3.76-.63-2.7-.73-2.95-.91-4.06a24.58,24.58,0,0,1-.3-3.19c-.1-1.84,0-2.36.23-2.84a3.74,3.74,0,0,1,1.48-1.64,4.93,4.93,0,0,1,2.62-.45,25.52,25.52,0,0,1,3.64.23c2.13.24,3.2.36,3.8.45,1.88.29,3.14.57,5.65,1.14,0,0,1.58.36,3.84,1.06a7.15,7.15,0,0,1,2.39,1.14,3.73,3.73,0,0,1,1.33,1.56c.39,1,0,1.82.26,1.93s1.08-.61,1.29-1.51a2.86,2.86,0,0,0-.57-2.28c-.54-.73-1.18-.94-2.46-1.48-2-.85-.56-.37-3.72-1.71-2.54-1.07-2.52-1-4.26-1.75-1.33-.59-2.19-1-3.37-1.59-.74-.38-1.56-.84-2.81-1.37a6.48,6.48,0,0,0-2-.64,16.9,16.9,0,0,0-2.46.3,4,4,0,0,1-2.09-.11A3.4,3.4,0,0,1,198,11.81c-.35-.72-.31-1-.83-2.05a3.65,3.65,0,0,0-.66-1.06A3.25,3.25,0,0,0,195,8c-1.57-.49-2.69-.72-2.69-.72-.74-.15-1.58-.33-2.75-.51-.7-.11-1.6-.24-2.77-.34-1.35-.11-2.34-.11-3.43-.11-.43,0-1.82,0-3.68.11-1.56.09-2.56.15-3.92.35a22.77,22.77,0,0,0-3.85.85A17.85,17.85,0,0,0,168.57,9c-.51.29-.91.55-1.1.68a21.39,21.39,0,0,0-2.24,1.73,21.42,21.42,0,0,0-3,3,35.75,35.75,0,0,0-2.15,3.19c-.8,1.28-1.27,2-1.84,3.14a27.91,27.91,0,0,0-1.47,3.36A8.62,8.62,0,0,0,156.13,26.5Z"/><path class="cls-8" d="M163.45,18c.06.13,1.45-.53,3.88-1.13a30.71,30.71,0,0,1,4-.73,35.68,35.68,0,0,1,3.91-.22,41.11,41.11,0,0,1,5.24.15c1.62.16,2.84.39,4.12.63s2.19.41,3.42.75c1.57.43,2.35.65,2.6.75.84.36,1.63.82,2,.53a1.32,1.32,0,0,0,.26-.65,1.36,1.36,0,0,0,.08-.62c-.1-.41-.76-.57-1.68-.78-1.15-.26-1.73-.39-2.15-.46-1.06-.17-.63-.15-2.85-.57s-3.12-.59-4.14-.72c-1.62-.2-2.85-.24-3.83-.27a32.84,32.84,0,0,0-5.09.16,30.61,30.61,0,0,0-4,.72,19.47,19.47,0,0,0-3.15,1A9.31,9.31,0,0,0,163.45,18Z"/><path class="cls-10" d="M0,57.12l.07-2.58c.52-.12,1.38-.29,2.58-.53s2.4-.5,3.61-.81l.67-.42a12.24,12.24,0,0,0,.35-2.9v-.21l-.14-8.16,0-3.42L7,33l.07-6L6.68,15.21a8.81,8.81,0,0,0-3.43-1c-.47-.1-1.15-.29-2-.57l-.85-.21V11L5,11.14q4.24.43,12.47.43,4.13,0,8.61-.22l.67,0,1.73,0,.71,0h1.48L37,11.11c.29,0,.66,0,1.12-.07s.89-.09,1.29-.11a17.1,17.1,0,0,1,.28,2.12l.53,6.65A4.88,4.88,0,0,1,40,21.32a15,15,0,0,1-1.88.18A1.85,1.85,0,0,1,37,21.18a7.69,7.69,0,0,1-.81-1.59Q34.71,16,33.67,15.36c-.7-.43-2.63-.65-5.81-.65L23,14.85a32.71,32.71,0,0,0-4.91.36,6.27,6.27,0,0,0-1.13.35,4.28,4.28,0,0,0-.46,2.09l.11,4.21-.11,4.82a23.48,23.48,0,0,0,.25,4.53,1.29,1.29,0,0,0,.53.25l2.5,0H24a41.23,41.23,0,0,0,4.33-.35,7.22,7.22,0,0,0,2.47-.57A3.22,3.22,0,0,0,32,29.15a16.45,16.45,0,0,0,.54-4.22l1,0,.67,0c.26,0,.78,0,1.56.11l-.22,5.66c0,1.2,0,2.23-.1,3.1l.07.78c0,.24,0,2,0,5.23,0,.22,0,.57,0,1.06a5.2,5.2,0,0,1-1.08.14,10.66,10.66,0,0,1-1.39-.21,14.84,14.84,0,0,1-.71-1.94c-.54-1.86-1.12-3-1.76-3.25q-1.7-.86-10.65-.85a21.09,21.09,0,0,0-3,.25,21.64,21.64,0,0,0-.24,3.42L16.82,49c0,1.95.24,3.15.64,3.6a6,6,0,0,0,2.65.85l.71.07a12.68,12.68,0,0,1,2.79.46l.95.22a9.21,9.21,0,0,1,.14,1.43,10.84,10.84,0,0,1-.1,1.35l-.67,0-1.1,0-5-.27q-.84,0-7.91,0a31.59,31.59,0,0,0-3.72.21c-1.86.21-2.87.32-3,.32C1.61,57.16.57,57.14,0,57.12Z"/><path class="cls-11" d="M72.38,50.26l.81.53a1,1,0,0,1,.39.61l0,.17a8.57,8.57,0,0,1-2.22,4.33A5.08,5.08,0,0,1,68,57.09a5.75,5.75,0,0,1-3.58-1.15,9.86,9.86,0,0,1-2.74-4,9.85,9.85,0,0,1-4.28,4,15.26,15.26,0,0,1-6.75,1.36c-2.45,0-4.25-.52-5.41-1.54a5.15,5.15,0,0,1-1.73-4A6,6,0,0,1,44,49.35,8.09,8.09,0,0,1,45.64,47a16.62,16.62,0,0,1,3.7-2.6c.25-.14,1.15-.54,2.68-1.2l8.8-3.53c.07-.9.11-1.81.11-2.72,0-3.19-.39-5.35-1.17-6.51a2.76,2.76,0,0,0-2.47-1.06A7.91,7.91,0,0,0,54,30a4.82,4.82,0,0,0-2.16,1.74A8.64,8.64,0,0,0,51,34.68a5.15,5.15,0,0,1-.46,1.8,4.44,4.44,0,0,1-1.92,1.22c-.93.37-1.56.63-1.89.8a7.7,7.7,0,0,1-3,.92,1.52,1.52,0,0,1-.5-1.21,6.7,6.7,0,0,1,.85-3.46,15.27,15.27,0,0,1,3.83-4,18.34,18.34,0,0,1,4.79-2.7,24.19,24.19,0,0,1,7.42-1,10.57,10.57,0,0,1,4.86,1,5.71,5.71,0,0,1,2.83,3.1c.53,1.36.8,3.83.8,7.38l-.07,5.83.07,4.28v1.1a3.66,3.66,0,0,0,.4,2,1.21,1.21,0,0,0,1,.55,1,1,0,0,0,.66-.22l1.06-1.66ZM60.79,42.07a21.23,21.23,0,0,0-4.54,2.24,10.7,10.7,0,0,0-3.52,3.16A5.44,5.44,0,0,0,52,50.33a3.57,3.57,0,0,0,.92,2.52,2.8,2.8,0,0,0,2.12,1,5.1,5.1,0,0,0,3.36-1.13,6.88,6.88,0,0,0,2.19-2.42,22.57,22.57,0,0,0,.32-5.1C60.93,44.14,60.88,43.1,60.79,42.07Z"/><path class="cls-12" d="M77.57,47a9.06,9.06,0,0,1,1.56-.21c.16,0,.41,0,.74,0l.32.35a36.07,36.07,0,0,0,2.51,4.06,14.62,14.62,0,0,0,2.44,2.34,11.27,11.27,0,0,0,2.54,1.16,7.25,7.25,0,0,0,2.47.43A5.52,5.52,0,0,0,94,53.75a4.17,4.17,0,0,0,1.59-3.1,3.1,3.1,0,0,0-.6-1.92,6,6,0,0,0-2.4-1.58,40,40,0,0,0-4.44-1.27c-2.37-.59-3.8-1-4.29-1.16a9.86,9.86,0,0,1-3-1.77,7.73,7.73,0,0,1-2-2.54A8.55,8.55,0,0,1,78,36.94a10.85,10.85,0,0,1,.77-4.4,8.9,8.9,0,0,1,5.29-4.82,11.82,11.82,0,0,1,4.43-.81,34.35,34.35,0,0,1,5.91.45,15.49,15.49,0,0,1,4.31,1.38q.21.81.6,3.75c.26,2,.39,3.11.39,3.46a1.52,1.52,0,0,1-.11.53,5.31,5.31,0,0,1-1.52.28,9.42,9.42,0,0,1-1-.07c-.22-.33-.5-.82-.85-1.48a13,13,0,0,0-3.48-4.44,6.87,6.87,0,0,0-4.12-1.29,6.12,6.12,0,0,0-4.1,1.42,3.47,3.47,0,0,0-1.2,2.79,3.4,3.4,0,0,0,1.25,2.37,8.51,8.51,0,0,0,4.3,1.87,35.93,35.93,0,0,1,6.84,2,10.34,10.34,0,0,1,4.48,3.5,8.46,8.46,0,0,1,1.29,4.67A8.74,8.74,0,0,1,98.37,55q-3.09,2.75-9,2.74c-.52,0-1.87-.12-4.06-.35a25.53,25.53,0,0,1-3.5-.71q-.5-.13-2.58-1a1.27,1.27,0,0,1-.55-.52,17.57,17.57,0,0,1-.48-2.95Q77.61,47.86,77.57,47Z"/><path class="cls-13" d="M106.59,30.11a21.7,21.7,0,0,0,6-3.46,22.1,22.1,0,0,0,4-5.51h2a6,6,0,0,1,.32,1.95c0,1.22,0,2.18,0,2.86l-.1,2.09q0,.16,0,.81l.81,0c.12,0,1.23,0,3.33-.14l2.65-.07a7.85,7.85,0,0,1,.21,1.68,8.33,8.33,0,0,1-.25,1.89,11,11,0,0,1-1.77.21,7.7,7.7,0,0,1-1.13-.14H120.8l-.64,0-1.7.1-.07,13.5a34.07,34.07,0,0,0,.16,4.9,4.79,4.79,0,0,0,.83,1.85,4.1,4.1,0,0,0,1.8.39,4.5,4.5,0,0,0,1.42-.17,8,8,0,0,0,1.55-1c.14-.12.37-.28.67-.49a8,8,0,0,1,1.38,1.34l.14.42a8.39,8.39,0,0,1-3.48,3.06,10.63,10.63,0,0,1-4.79,1.11,7.13,7.13,0,0,1-5.33-2.08q-2.05-2.09-2-6.46l.14-6.21V32.45l-1.1-.07-2.54.07-.46-.17a1.09,1.09,0,0,1-.21-.6C106.52,31.54,106.54,31,106.59,30.11Z"/><path class="cls-14" d="M240.61,55.13a2.82,2.82,0,0,1,1.2-.59,10.64,10.64,0,0,0,3.43-1.41,26.83,26.83,0,0,0,.32-5.72,119,119,0,0,0-.39-12.06,1.53,1.53,0,0,0-.56-1,10.19,10.19,0,0,0-2.41-.81,1.06,1.06,0,0,1-.85-.78l-.1-1.31A10.92,10.92,0,0,0,246,29.68a12.21,12.21,0,0,0,3.18-2.92,9.62,9.62,0,0,1,1-1.23l2.48-.08a7.15,7.15,0,0,1,.17,1.35c0,.26,0,.58,0,.95,0,.83,0,1.51,0,2.05,0,.26,0,1.24,0,2.94a33,33,0,0,1,2.12-3.33,24.59,24.59,0,0,1,1.87-1.73,4.47,4.47,0,0,1,2.72-.88,4.6,4.6,0,0,1,3.25,1.27A3.9,3.9,0,0,1,264.11,31a4.67,4.67,0,0,1-1,3,3.36,3.36,0,0,1-2.77,1.33A5.27,5.27,0,0,1,257.12,34a3,3,0,0,0-1.59-.77l-.25,0a2.66,2.66,0,0,0-1.35,1.34,7.47,7.47,0,0,0-1,3.66l.07,1q.14,2.61.21,12.22a4.16,4.16,0,0,0,.67,1.77,4.09,4.09,0,0,0,1.29.7,12.25,12.25,0,0,0,2.28.36,4.39,4.39,0,0,1,2,.44,1.28,1.28,0,0,1,.35,1,3.57,3.57,0,0,1-.21,1h-3.32l-6.75-.32c-1.7,0-3.24.07-4.63.21h-.6l-3.68.18a5.29,5.29,0,0,1-.1-.88A4.63,4.63,0,0,1,240.61,55.13Z"/><path class="cls-15" d="M296.8,50.26l.82.53a1,1,0,0,1,.39.61l0,.17a8.65,8.65,0,0,1-2.23,4.33,5.05,5.05,0,0,1-3.42,1.19,5.77,5.77,0,0,1-3.59-1.15,10.05,10.05,0,0,1-2.74-4,9.82,9.82,0,0,1-4.27,4A15.28,15.28,0,0,1,275,57.3c-2.45,0-4.25-.52-5.4-1.54a5.13,5.13,0,0,1-1.74-4,6,6,0,0,1,.52-2.36A7.9,7.9,0,0,1,270.07,47a16.52,16.52,0,0,1,3.69-2.6c.26-.14,1.16-.54,2.69-1.2l8.8-3.53c.07-.9.1-1.81.1-2.72,0-3.19-.39-5.35-1.16-6.51a2.78,2.78,0,0,0-2.48-1.06,7.91,7.91,0,0,0-3.25.67,4.73,4.73,0,0,0-2.15,1.74,8.41,8.41,0,0,0-.85,2.93,5.4,5.4,0,0,1-.46,1.8,4.55,4.55,0,0,1-1.93,1.22c-.93.37-1.56.63-1.89.8a7.61,7.61,0,0,1-3,.92,1.52,1.52,0,0,1-.49-1.21,6.7,6.7,0,0,1,.85-3.46,15,15,0,0,1,3.83-4,18.19,18.19,0,0,1,4.79-2.7,24.15,24.15,0,0,1,7.42-1,10.6,10.6,0,0,1,4.86,1,5.75,5.75,0,0,1,2.83,3.1c.53,1.36.79,3.83.79,7.38L293,44.43l.07,4.28v1.1a3.75,3.75,0,0,0,.4,2,1.24,1.24,0,0,0,1,.55,1,1,0,0,0,.66-.22l1.06-1.66Zm-11.59-8.19a21.46,21.46,0,0,0-4.54,2.24,10.81,10.81,0,0,0-3.52,3.16,5.44,5.44,0,0,0-.7,2.86,3.53,3.53,0,0,0,.92,2.52,2.8,2.8,0,0,0,2.12,1,5.05,5.05,0,0,0,3.35-1.13A6.88,6.88,0,0,0,285,50.28a21.94,21.94,0,0,0,.32-5.1C285.35,44.14,285.31,43.1,285.21,42.07Z"/><path class="cls-16" d="M297.69,28.21l.63,0h.53q.28,0,2.46.21c1.45.14,2.79.21,4,.21q1.41,0,4-.21c1.7-.14,2.73-.21,3.11-.21l1.31,0c0,.45.07.81.07,1.1a2.93,2.93,0,0,1-.14.81,7.37,7.37,0,0,1-1.24.28,7.12,7.12,0,0,0-2.16.64.82.82,0,0,0-.28.49,18.3,18.3,0,0,0,.6,1.88L314,41.32a64.16,64.16,0,0,0,3,6.12c.47,1.06.79,1.76,1,2.12a60.38,60.38,0,0,0,5-11.14l-1.59-3.35a43.42,43.42,0,0,0-2.05-4l-1.38-.36c-.87-.21-1.67-.43-2.41-.67v-2c1.74,0,2.93.08,3.57.16,1,.11,2.63.16,4.72.16q1.56,0,3.81-.09c1.51-.06,2.42-.09,2.75-.09h1.73l-.07,2-1.77.17a14,14,0,0,0-2.44.46c1.18,2.92,2,4.73,2.33,5.41l.43.78,3.78,8.27,1.3,2.83,1.38-3q1.71-3.72,2-4.53c.68-1.77,1.08-2.78,1.2-3a13.86,13.86,0,0,0,1.66-5.19c0-.31-.24-.63-.74-1a24.05,24.05,0,0,0-2.61-.88,12,12,0,0,1-2.3-.43l.18-1.83a6.27,6.27,0,0,1,.88-.07c.19,0,1.25.07,3.2.23s3.08.23,3.41.23c.89,0,2.26-.1,4.1-.29.8-.07,1.46-.1,2-.1v1c0,.19,0,.56,0,1.1A18.13,18.13,0,0,0,345.64,32a1.64,1.64,0,0,0-.45.67l-5.38,12.16q-1.38,2.89-4.68,11c-.3.73-.54,1.3-.7,1.7h-2.64l-6-13.46-.64-1.38a13.56,13.56,0,0,0-.67-1.31l-.32.56-4.24,8.77c-.63,1.37-1.23,2.56-1.78,3.57a25.64,25.64,0,0,0-1.47,3.14l-1.24,0-1.91,0L308,45.74l-6-12.86a4.74,4.74,0,0,0-1.06-1.42,4.58,4.58,0,0,0-1.93-.83,3.2,3.2,0,0,1-1.36-.44q0-.68,0-1A6,6,0,0,1,297.69,28.21Z"/><path class="cls-17" d="M349.6,55.33a4.4,4.4,0,0,1,2.07-.68c1.63-.19,2.57-.44,2.81-.74.47-.62.71-1.86.71-3.75V40.21l-.07-2.37V30.71l-.07-8.16V21.14a14.36,14.36,0,0,0-.47-4.27,5.08,5.08,0,0,0-2.67-.74,6.82,6.82,0,0,1-1.6-.18,12.73,12.73,0,0,1-.11-1.31,3.19,3.19,0,0,1,.08-.64,24.27,24.27,0,0,0,5.78-1.43,19.09,19.09,0,0,0,4.59-2.28l1,0,.91,0q.21,12.23.21,16.74c0,.9,0,1.62-.07,2.16v.21l.07.67V45.71l.07,5.16v.85a3.56,3.56,0,0,0,.49,2.15,2.82,2.82,0,0,0,1.79.57c.49,0,1.47.16,2.92.35a5.78,5.78,0,0,1,.17,1.2,8.67,8.67,0,0,1-.07,1l-2.79-.13c-1.55-.1-3.51-.16-5.87-.16l-1.3,0c-1.35,0-3.29.11-5.84.32h-2.58Z"/><path class="cls-18" d="M371.23,38.16a15.61,15.61,0,0,1,1.63-4,17.87,17.87,0,0,1,4.22-4.53,13.92,13.92,0,0,1,4.05-2.16,14.2,14.2,0,0,1,3.78-.67,23,23,0,0,1,5.37.51,10.3,10.3,0,0,1,3.43,1.47,16.3,16.3,0,0,1,3.18,2.78,12.08,12.08,0,0,1,2,3.32,13.49,13.49,0,0,1,.83,4.63l-3.92-.07q-1.63,0-7.14-.31c-1.37-.12-2.31-.17-2.83-.17L382,39h-3a5.68,5.68,0,0,0-.07.85,18,18,0,0,0,.46,3.95,12.53,12.53,0,0,0,1.37,3.65A10.31,10.31,0,0,0,383,50.19a9.12,9.12,0,0,0,2.81,1.63l2,.67a25,25,0,0,0,3.64-.17,16,16,0,0,0,3-.91,17.37,17.37,0,0,0,3.13-1.85c.84.61,1.55,1.16,2.12,1.66a20.34,20.34,0,0,1-6.45,5,17.62,17.62,0,0,1-7.48,1.54,17.38,17.38,0,0,1-4.56-.49A14,14,0,0,1,377,55.28,13,13,0,0,1,373.67,52a15,15,0,0,1-2.05-4,14.65,14.65,0,0,1-.88-4.32A28.43,28.43,0,0,1,371.23,38.16Zm20.54-1.5a10.65,10.65,0,0,0-.78-3.8,6,6,0,0,0-2.3-2.82,5.39,5.39,0,0,0-7.42,1.07,9.08,9.08,0,0,0-2.16,5.65l8.06.08c.52,0,1.25,0,2.19-.11.68-.07,1.17-.1,1.45-.1Z"/><path class="cls-19" d="M403.5,55.13a2.76,2.76,0,0,1,1.2-.59,10.73,10.73,0,0,0,3.43-1.41,26.83,26.83,0,0,0,.32-5.72,119,119,0,0,0-.39-12.06,1.54,1.54,0,0,0-.57-1,10.1,10.1,0,0,0-2.4-.81,1.06,1.06,0,0,1-.85-.78l-.1-1.31a10.92,10.92,0,0,0,4.73-1.78,12.37,12.37,0,0,0,3.18-2.92,9.62,9.62,0,0,1,1-1.23l2.47-.08a6.52,6.52,0,0,1,.18,1.35c0,.26,0,.58,0,.95,0,.83,0,1.51,0,2.05,0,.26,0,1.24,0,2.94a35.43,35.43,0,0,1,2.11-3.33c.22-.25.84-.83,1.88-1.73a4.47,4.47,0,0,1,2.72-.88,4.62,4.62,0,0,1,3.25,1.27A3.9,3.9,0,0,1,427,31a4.73,4.73,0,0,1-1,3,3.38,3.38,0,0,1-2.78,1.33A5.32,5.32,0,0,1,420,34a3,3,0,0,0-1.59-.77l-.25,0a2.65,2.65,0,0,0-1.34,1.34,7.38,7.38,0,0,0-1,3.66l.07,1q.15,2.61.22,12.22a4.16,4.16,0,0,0,.67,1.77,4.09,4.09,0,0,0,1.29.7,12,12,0,0,0,2.28.36,4.29,4.29,0,0,1,2,.44,1.25,1.25,0,0,1,.36,1,3.57,3.57,0,0,1-.21,1h-3.33l-6.75-.32a46.23,46.23,0,0,0-4.62.21h-.61l-3.67.18a5.56,5.56,0,0,1-.11-.88A4.85,4.85,0,0,1,403.5,55.13Z"/></g></g></svg>