<svg xmlns="http://www.w3.org/2000/svg" xmlns:xlink="http://www.w3.org/1999/xlink" viewBox="0 0 203.07 184.13"><defs><style>.cls-1{fill:url(#linear-gradient);}.cls-2{fill:url(#linear-gradient-2);}.cls-3{fill:url(#linear-gradient-3);}.cls-4{fill:url(#linear-gradient-4);}.cls-5{fill:url(#linear-gradient-5);}.cls-6{fill:url(#linear-gradient-6);}.cls-7{fill:url(#linear-gradient-7);}.cls-8{fill:#fff;}.cls-9{fill:url(#linear-gradient-8);}</style><linearGradient id="linear-gradient" x1="128.99" y1="85.92" x2="203.07" y2="85.92" gradientUnits="userSpaceOnUse"><stop offset="0" stop-color="#333"/><stop offset="0.3" stop-color="#3e3e3e"/><stop offset="0.81" stop-color="#5a5a5a"/><stop offset="1" stop-color="#666"/></linearGradient><linearGradient id="linear-gradient-2" y1="110.19" x2="40.31" y2="110.19" gradientUnits="userSpaceOnUse"><stop offset="0" stop-color="#333"/><stop offset="0.99" stop-color="#666"/></linearGradient><linearGradient id="linear-gradient-3" x1="22.51" y1="123.21" x2="147.72" y2="123.21" gradientUnits="userSpaceOnUse"><stop offset="0" stop-color="#666"/><stop offset="1" stop-color="#1a1a1a"/></linearGradient><linearGradient id="linear-gradient-4" x1="36.24" y1="132.76" x2="121.79" y2="132.76" gradientUnits="userSpaceOnUse"><stop offset="0" stop-color="#333"/><stop offset="1" stop-color="#666"/></linearGradient><linearGradient id="linear-gradient-5" x1="10.41" y1="46.05" x2="198.89" y2="46.05" xlink:href="#linear-gradient-4"/><linearGradient id="linear-gradient-6" x1="125.81" y1="73.07" x2="147.2" y2="73.07" xlink:href="#linear-gradient-3"/><linearGradient id="linear-gradient-7" x1="160.58" y1="58.51" x2="179.49" y2="58.51" gradientUnits="userSpaceOnUse"><stop offset="0" stop-color="#1a1a1a"/><stop offset="1" stop-color="#666"/></linearGradient><linearGradient id="linear-gradient-8" x1="22.55" y1="57.5" x2="188.62" y2="57.5" xlink:href="#linear-gradient-3"/></defs><g id="Layer_2" data-name="Layer 2"><g id="Layer_1-2" data-name="Layer 1"><path class="cls-1" d="M199,107a36.93,36.93,0,0,1-8.34-1.44,38.81,38.81,0,0,1-10.91-5.27c-4.79-3.31-7.52-6.89-12.8-13.92-2-2.62-1.78-2.54-10.85-15.49-3.84-5.5-5.17-7.36-7.77-9.72a33,33,0,0,0-11.1-6.78c-3.82-1.36-8-2-8.22-1.44s6.35,2,12.67,7.53c3.47,3,5.42,6.07,8.72,11.22a118.47,118.47,0,0,1,6.39,11.67c3,6,2.89,6.46,5.27,10.91,2.85,5.33,4.27,8,6.77,10.91a40.71,40.71,0,0,0,24.4,13.42c5.12.79,9.81.48,9.85.07s-6.36-.42-14-3.58c-6.1-2.5-11.22-6.3-10.79-7.27.35-.79,4,.87,9.85.94A33.19,33.19,0,0,0,199,107Z"/><path class="cls-2" d="M6.16,52.94c-.32-.08-2.09,5.16-3.33,10.54a101.21,101.21,0,0,0-2,12.73A110,110,0,0,0,0,87.62a92.79,92.79,0,0,0,3.76,27.85,96.35,96.35,0,0,0,3.58,10.09c.76,1.84,2.13,5,4.14,8.72a99.83,99.83,0,0,0,5.45,9c2.26,3.33,4.17,5.7,5.33,7.15s3.16,3.91,6,6.9c2.4,2.5,4.09,4,6.15,5.9,4.84,4.34,5.47,4.3,5.71,4.14.49-.34-.18-1.51-1.11-5.76-1.16-5.31-1.46-7.23-1.46-7.23a8.81,8.81,0,0,0-.94-3.32,9.77,9.77,0,0,0-2.7-2.76c-1.42-1.15-2.73-2.42-4.14-3.58A53.92,53.92,0,0,1,23.4,138a76.72,76.72,0,0,1-7-8.84A70.59,70.59,0,0,1,11,119.1a80.68,80.68,0,0,1-4.39-11.54A81.75,81.75,0,0,1,4.15,96,89.34,89.34,0,0,1,3,80.85,99.85,99.85,0,0,1,4,68.91C4.72,63,5.53,57.77,5.53,57.77,6.06,54.36,6.32,53,6.16,52.94Z"/><path class="cls-3" d="M103.55,66.49c0,.33-4.87-.35-12.42-.76a119.53,119.53,0,0,0-18.43-.06,73.17,73.17,0,0,0-18.94,4.14A38,38,0,0,0,43.6,75a33.86,33.86,0,0,0-8.16,8.47,32.75,32.75,0,0,0-4.26,9.72,37.36,37.36,0,0,0-1.26,8.72,27.6,27.6,0,0,0,.63,7.65,30.52,30.52,0,0,0,3.39,8,36.91,36.91,0,0,0,3.32,5.2,46.67,46.67,0,0,0,5.27,5.52c1.5,1.44,3,2.88,5.21,4.64s4,3,5.14,3.76c2.93,2,5.26,3.29,7.46,4.52,2.7,1.51,4.79,2.55,6.59,3.45,1.52.76,3.4,1.7,5.89,2.82,2.91,1.31,5.12,2.19,7.21,3,3.65,1.44,6.42,2.41,9.73,3.58,3.55,1.25,5.33,1.87,7.52,2.57,1.5.47,3.07.95,13.8,3.76,5.59,1.47,7.7,2,10.41,2.64,1.67.39,3.49.7,7.09,1.5,3,.66,3.94.91,5.08,1.67.42.29,1.14.82,3.68,4.43,1.49,2.1,1.82,2.72,3.84,5.69a46.87,46.87,0,0,0,2.8,3.89c2.28,2.63,3.91,3.34,3.72,3.76-.28.64-4.29-.51-11.22-2.63-14.73-4.52-10.83-3.19-14.87-4.52-9.39-3.09-16.54-5.66-19.88-6.9-3-1.1-6.93-2.57-12.16-4.7-3.32-1.35-6.83-2.83-10.48-4.45-2.76-1.23-5.85-2.6-9.91-4.58-2.24-1.09-5.19-2.54-9-4.64-1.63-.9-4.12-2.27-7.27-4.2A99.26,99.26,0,0,1,42,139.93a73.67,73.67,0,0,1-7.59-6.9A43.65,43.65,0,0,1,29,126.32a38.23,38.23,0,0,1-3.57-7.09,40.1,40.1,0,0,1-1.94-7.46,52.3,52.3,0,0,1-.88-7.4A34.45,34.45,0,0,1,23,96.21a33.6,33.6,0,0,1,2.51-7.77,36.5,36.5,0,0,1,3.58-6.65A37.4,37.4,0,0,1,33,77a41.27,41.27,0,0,1,5.2-4.52,44.88,44.88,0,0,1,6.53-4,52.22,52.22,0,0,1,6.46-2.76,55.13,55.13,0,0,1,7.08-1.88,72,72,0,0,1,8.91-1.31,75.73,75.73,0,0,1,9-.19c3.95.1,6.95.42,9.34.69,3.44.37,6.14.8,7.65,1.06C97.33,64.82,103.61,66.1,103.55,66.49Z"/><path class="cls-4" d="M36.26,110.32c-.25.2,1.8,3.75,5.08,7.22a50.54,50.54,0,0,0,6.9,5.77A114,114,0,0,0,58,130c2.21,1.34,4.48,2.54,9,4.95,3.28,1.74,5.13,2.71,7.78,3.95,2.32,1.09,4,1.79,7.4,3.2,3,1.25,5.38,2.24,8.59,3.45,4.1,1.55,7.21,2.57,10.66,3.7,4.74,1.56,3.59,1.07,8.78,2.76,2.55.83,5.18,1.41,7.72,2.26,2,.68,3.43,1.21,3.76.75s-.31-.94-2.26-3.95c-.94-1.45-1.24-2.23-2.32-3.76a6.6,6.6,0,0,0-2.07-2.2,7,7,0,0,0-2.38-.75c-1.45-.31-2.89-.67-4.33-1s-1.88-.52-4.51-1.32c-3.39-1-3.77-1-6.78-1.95-1-.31-4.21-1.28-8.4-2.69-1.27-.43-4.57-1.55-8.84-3.14-2.26-.83-4-1.5-7.41-2.84-4.43-1.73-6.64-2.6-8.4-3.37-3-1.31-5.16-2.41-7.46-3.57-2.67-1.35-4.66-2.35-7.28-3.89A57.63,57.63,0,0,1,43,116.53C38.57,113.16,36.5,110.13,36.26,110.32Z"/><path class="cls-5" d="M11.61,92.11c.25,0-.38-6.44.57-16a106.51,106.51,0,0,1,2.25-13.73A79,79,0,0,1,18.1,50.24,68.22,68.22,0,0,1,25.1,37a62.18,62.18,0,0,1,7.33-8.78,52.4,52.4,0,0,1,8.41-7,56.6,56.6,0,0,1,9.28-4.83,75.25,75.25,0,0,1,8-3c1-.3,3.76-1.13,7.46-1.88,1.18-.24,4-.78,7.65-1.19A109.06,109.06,0,0,1,89,9.93c7.65.22,12.15.36,18.42,1.47a72.55,72.55,0,0,1,19.3,5.82,85.56,85.56,0,0,1,7.9,4.33c4.67,2.87,5,3.64,10.16,7,4.45,2.9,4.06,2.23,10.54,6.3A87.56,87.56,0,0,0,163,39.47c1.77.91,3.54,1.66,7.1,3.15,6.25,2.63,10.17,4.17,10.17,4.17a49,49,0,0,1,6.09,2.76,27.78,27.78,0,0,1,3.82,2.51c1.92,1.51,2.88,2.27,3.39,3.58a7.5,7.5,0,0,1-.13,4.76c-.62,2.49-2,4.64-2.25,4.52-.47-.18,1.4-5.9,1.19-6s-.51,1.45-1.63,3.42a9.66,9.66,0,0,1-2,2.79c-1.66,1.43-2.66.68-4.3,2-1.18.92-.87,1.48-2.58,4s-3,3.31-2.84,3.62c.39.6,5.33-1.76,9.47-4.45a28.27,28.27,0,0,0,7.34-6.34,12.47,12.47,0,0,0,2.82-5.39,9.83,9.83,0,0,0-.44-5.89c-.34-.79-1.12-2.28-5.46-5.27A57.86,57.86,0,0,0,185.15,43c-3-1.49-5.3-2.44-9.41-4.14-4.67-1.93-5.46-2.12-8.47-3.51a42.45,42.45,0,0,1-6.52-3.45,49.83,49.83,0,0,1-6.08-5.33c-1.75-1.67-3.56-3.4-5.84-5.9s-2.89-3.44-5.08-5.52a23,23,0,0,0-4.26-3.38,25.27,25.27,0,0,0-3.89-1.82c-1.9-.77-3.2-1.17-6.27-2.14l-6.84-2.13c-3.79-1.09-6.69-1.78-7.4-1.94s-3.89-.9-8-1.63c-2.25-.4-5.37-.94-9.47-1.38C92.62.17,88.41,0,85.37,0a90.79,90.79,0,0,0-11.73.5,81.94,81.94,0,0,0-13.42,2.7A80.67,80.67,0,0,0,49.81,7,72.35,72.35,0,0,0,40,12.24a63.75,63.75,0,0,0-7.71,5.83A58.68,58.68,0,0,0,20.64,32.31a69.52,69.52,0,0,0-3.76,7.77,73,73,0,0,0-3.14,8.09,66.12,66.12,0,0,0-2,8.53c-.57,3.17-.89,5.93-1.07,8.09a95.75,95.75,0,0,0-.19,11.35C10.71,84,11.33,92.12,11.61,92.11Z"/><path class="cls-6" d="M147.2,86.81c0,.66-4.92,1.3-8.46,1.75s-4.51.38-5.33-.12S132,87,130.65,82.85s-2.06-7-2.1-7.16c-.19-.75-1-3.88-1.86-8.2a38.32,38.32,0,0,1-.87-7.34c0-.74,0-2.85.25-2.88.14,0,.37.41,1.44,4.64.79,3.13.85,3.64,1.32,5.39a57.12,57.12,0,0,0,1.88,6,55.38,55.38,0,0,0,2.76,6.15c1.55,3,2.34,4.57,3.51,5.26.79.47,1.16.42,4.89,1C145.41,86.23,147.19,86.52,147.2,86.81Z"/><path class="cls-7" d="M160.58,63.88c.07.56,4.31.73,8.65-.18a20.31,20.31,0,0,0,7.67-3.34c1.41-1,2.64-1.94,2.59-3.11-.08-1.5-2.2-2.5-4-3.34-2-.94-3.34-1.59-4.51-1-1.4.66-.88,2.26-2.78,5.22a13.45,13.45,0,0,1-2.87,3.24C162.83,63.38,160.52,63.47,160.58,63.88Z"/><path class="cls-8" d="M166,62.71c-.1-.35,2.78-.61,5.22-2.92,2.06-1.94,2.78-4.36,4-4.17a3.82,3.82,0,0,1,1.47.74c.45.33.68.5.74.73.26.94-2.11,2.36-3.54,3.22a16.19,16.19,0,0,1-4.46,2C168,62.71,166.12,63,166,62.71Z"/><path class="cls-9" d="M22.62,65.67c.48.22,2.26-5.31,7.34-10.35a33.55,33.55,0,0,1,9-6.21,44.51,44.51,0,0,1,10.75-3.66,73.53,73.53,0,0,1,13.74-1.79A105.42,105.42,0,0,1,80.66,44c2.17.24,6.46,1.1,15,2.83s10.55,2.27,12.33,4.32c1.45,1.69,2.13,3.85,3.48,8.19.26.85.39,1.32,1.88,7.71.84,3.6.9,3.89,1.88,8.09,1.49,6.39,1.57,6.71,1.79,7.9,1,5.23,1.06,5.84,1.06,5.84.5,3,.54,3.61,1.1,4.61,1,1.71,2.4,2.56,4.11,3.57a17.25,17.25,0,0,0,6.52,2.26,16.67,16.67,0,0,0,5.27-.19,16.85,16.85,0,0,0,5.3-2.07c1.86-1.06,4.88-3.16,4.55-3.89-.27-.57-2.35.26-6.78.5-3.19.18-4.78.27-6-.37S130,91.61,128,84.49c-.82-2.87-1-4-2.26-9.32-1.56-6.69-1.82-7.32-2.26-10.06a66.71,66.71,0,0,1-.75-7.91c-.25-4.56,0-5.84.57-7.05a9.28,9.28,0,0,1,3.67-4c1.15-.67,2.51-1.08,6.49-1.13a69.9,69.9,0,0,1,9,.57c5.28.6,7.92.9,9.4,1.13,4.68.71,7.8,1.41,14,2.82,0,0,3.91.88,9.5,2.63A17.38,17.38,0,0,1,181.32,55a9,9,0,0,1,3.29,3.85c1,2.53,0,4.51.66,4.8s2.66-1.52,3.2-3.76a7.18,7.18,0,0,0-1.41-5.65c-1.34-1.8-2.94-2.33-6.12-3.66-5-2.11-1.37-.92-9.22-4.24-6.27-2.65-6.24-2.41-10.53-4.33-3.31-1.47-5.44-2.42-8.37-4-1.83-.95-3.86-2.07-7-3.38-3.35-1.42-4.37-1.56-5-1.6-2.1-.16-2.56.45-6.12.75-2.64.23-4,.33-5.17-.28-1.6-.83-2.36-2.35-3.29-4.24s-.77-2.37-2.07-5.08a8.89,8.89,0,0,0-1.63-2.63A7.87,7.87,0,0,0,119,19.7c-3.9-1.21-6.68-1.79-6.68-1.79-1.82-.38-3.9-.81-6.8-1.25-1.74-.27-4-.61-6.87-.85-3.34-.28-5.8-.28-8.5-.28-1.07,0-4.51,0-9.12.28-3.88.23-6.35.38-9.72.88a56.53,56.53,0,0,0-9.54,2.08,44.81,44.81,0,0,0-8.34,3.56c-1.26.72-2.24,1.37-2.71,1.68a55.45,55.45,0,0,0-5.57,4.28,54.5,54.5,0,0,0-7.33,7.47,77.11,77.11,0,0,0-5.33,7.9c-2,3.18-3.16,5-4.58,7.77a73.78,73.78,0,0,0-3.64,8.35C23.76,61.21,22.19,65.48,22.62,65.67Z"/><path class="cls-8" d="M40.77,44.69c.14.32,3.6-1.33,9.6-2.82a80.12,80.12,0,0,1,10-1.79A93,93,0,0,1,70,39.52a104.58,104.58,0,0,1,13,.37c4,.4,7,1,10.21,1.56s5.43,1,8.49,1.86c3.88,1.08,5.82,1.62,6.44,1.88,2.08.88,4,2,4.87,1.29a3.34,3.34,0,0,0,.66-1.6,3.39,3.39,0,0,0,.19-1.54c-.25-1-1.89-1.42-4.16-1.93-2.86-.64-4.28-1-5.32-1.14-2.65-.43-1.57-.36-7.08-1.41-5.15-1-7.73-1.47-10.25-1.79a93.17,93.17,0,0,0-9.5-.66A82.84,82.84,0,0,0,65,36.79a80.54,80.54,0,0,0-9.78,1.79A48.85,48.85,0,0,0,47.36,41C43.9,42.47,40.64,44.38,40.77,44.69Z"/></g></g></svg>